<svg xmlns="http://www.w3.org/2000/svg" viewBox="0 0 792 144">

<!-- QUL squares -->
<g>
  <path d="M90.496 63.664V15.666h48.088v48.087H90.496v-.089z" fill="#FAB80A"/>
  <path d="M61.218 130.206V82.207h48.083v48.087H61.218v-.088z" fill="#B91134"/>
  <path d="M10.647 63.664V15.666h48.087v48.087H10.647v-.089z" fill="#0F2D56"/>
  <path d="M69.345 82.296v-7.892H34.606V63.576h23.95V55.59H77.37v26.795h-8.025v-.089z" fill="#FCCD52"/>
  <path d="M69.345 87.619v-5.412h8.025v5.5h-8.025v-.088z" fill="#E37B22"/>
  <path d="M34.606 63.664V39.625h16.147V55.59h7.981v8.163H34.606v-.089z" fill="#937948"/>
  <path d="M82.511 47.694v-7.891H58.556v-23.96h-7.98V7.685h48.083v8.158h-7.985v31.94h-8.163v-.089z" fill="#CE4F5B"/>
  <path d="M90.408 47.783V15.577h8.34v32.295h-8.34v-.089z" fill="#CD422F"/>
  <path d="M50.576 39.714V15.666h8.158v24.137h-8.158v-.089z" fill="#7A2143"/>
  <path d="M58.468 55.768V39.536h24.31v8.336h-5.319v7.984H58.468v-.088z" fill="#CD463D"/>
  <path d="M50.576 55.679V39.625h8.158v16.143h-8.158v-.089z" fill="#AF3539"/>
  <path d="M109.124 90.285v-7.9H82.511V55.59h8.163v7.986h34.606v26.798h-16.156v-.089z" fill="#425583"/>
  <path d="M90.496 63.664V55.59h7.986v-7.984h26.798v16.147H90.496v-.089z" fill="#444B5D"/>
  <path d="M77.193 95.604V87.53h5.318v-5.322h26.79v8.166H98.659v5.318H77.193v-.088z" fill="#3F2B4F"/>
  <path d="M77.193 82.296V55.59h5.496v26.795h-5.496v-.089z" fill="#444E69"/>
  <path d="M77.193 87.619v-5.412h5.496v5.5h-5.496v-.088z" fill="#434059"/>
  <path d="M82.511 47.606h8.163v8.162h-8.163v-8.162z" fill="#40385E"/>
  <path d="M90.496 47.606h8.163v8.162h-8.163v-8.162z" fill="#413554"/>
  <path d="M77.193 47.606h5.496v8.162h-5.496v-8.162z" fill="#413657"/>
  <path d="M98.481 138.195v-8.078h10.643V95.515h15.978v-5.319h21.462v48.088H98.481v-.089z" fill="#FDE5A5"/>
  <path d="M98.481 130.206V95.515h10.82v34.779h-10.82v-.088z" fill="#CD422F"/>
  <path d="M109.124 95.604v-5.408h16.156v5.496h-16.156v-.088z" fill="#747073"/>
  <path d="M98.481 95.604v-5.408h10.82v5.496h-10.82v-.088z" fill="#6E4B50"/>
  <path d="M47.91 122.225V95.693H21.293V74.227h13.491V87.53h26.612v34.784H47.91v-.089z" fill="#E69F9E"/>
  <path d="M61.218 122.225V87.53h8.304v34.784h-8.304v-.089z" fill="#B91134"/>
  <path d="M34.606 87.619V74.227h34.916v8.158h-8.126v5.323h-26.79v-.089z" fill="#E48647"/>
  <path d="M61.218 87.619v-5.412h8.304v5.5h-8.304v-.088z" fill="#D4552C"/>
  <path d="M0 143.514V95.515h21.471v26.622h26.617v21.466H0v-.089z" fill="#9299BB"/>
  <path d="M21.293 122.225v-26.71h26.795v26.799H21.293v-.089z" fill="#896C89"/>
</g>

<!-- QUL wordmark -->
<path d="M214.035 129.328a77.925 77.925 0 0 1-8.893-3.174 5.011 5.011 0 0 0-1.571-.336c-5.081-.334-9.83-4.078-9.83-11.434 0-6.751 4.279-11.833 11-11.833 6.887 0 10.665 5.214 10.665 11.365 0 5.116-2.373 8.728-5.349 10.064v.135c1.739.501 3.678.901 5.449 1.27l-1.471 3.943zm-9.428-7.556c3.41 0 5.417-3.243 5.417-7.655 0-4.112-1.94-7.522-5.417-7.522-3.476 0-5.482 3.412-5.482 7.622-.034 4.279 2.039 7.555 5.449 7.555h.033zm24.904-18.854v12.971c0 3.879 1.471 5.851 4.079 5.851 2.675 0 4.145-1.872 4.145-5.851v-12.971h5.082v12.638c0 6.953-3.51 10.262-9.394 10.262-5.683 0-9.026-3.142-9.026-10.329v-12.571h5.114zm36.805 13.004h-8.291v5.35h9.261v4.179H252.91v-22.533h13.908v4.179h-8.793v4.68h8.291v4.145zm23.534 0h-8.292v5.35h9.261v4.179h-14.375v-22.533h13.907v4.179h-8.793v4.68h8.292v4.145zm10.126 9.529v-22.533h5.95l4.682 8.257a65.431 65.431 0 0 1 3.677 7.722h.1c-.334-2.975-.434-6.017-.434-9.427v-6.552h4.681v22.533h-5.35l-4.814-8.692c-1.337-2.408-2.808-5.316-3.911-7.957l-.102.033c.136 2.975.201 6.152.201 9.828v6.788h-4.68zm34.157-23.134c-1.036 3.242-2.507 6.518-4.011 9.025l-3.076.301c1.003-2.875 1.872-6.084 2.307-9.026l4.78-.3zm7.889 17.884c1.371.703 3.477 1.405 5.651 1.405 2.339 0 3.577-.971 3.577-2.44 0-1.405-1.071-2.208-3.778-3.177-3.745-1.304-6.185-3.376-6.185-6.651 0-3.846 3.209-6.787 8.525-6.787 2.541 0 4.413.534 5.75 1.136l-1.136 4.113a10.704 10.704 0 0 0-4.714-1.071c-2.206 0-3.277 1.003-3.277 2.174 0 1.436 1.271 2.073 4.178 3.176 3.98 1.471 5.852 3.544 5.852 6.719 0 3.778-2.909 7.02-9.094 7.02-2.574 0-5.115-.702-6.385-1.404l1.036-4.213zm40.757-17.283v12.971c0 3.879 1.47 5.851 4.078 5.851 2.676 0 4.145-1.872 4.145-5.851v-12.971h5.083v12.638c0 6.953-3.51 10.262-9.395 10.262-5.683 0-9.026-3.142-9.026-10.329v-12.571h5.115zm23.398 22.533v-22.533h5.951l4.681 8.257a65.431 65.431 0 0 1 3.677 7.722h.1c-.334-2.975-.434-6.017-.434-9.427v-6.552h4.68v22.533h-5.349l-4.814-8.692c-1.337-2.408-2.808-5.316-3.911-7.957l-.101.033c.135 2.975.2 6.152.2 9.828v6.788h-4.68zm28.749-22.533h5.114v22.533h-5.114v-22.533zm20.525 22.533l-7.222-22.533h5.584l2.741 9.527c.769 2.676 1.471 5.25 2.006 8.057h.1a98.051 98.051 0 0 1 2.041-7.956l2.874-9.628h5.416l-7.59 22.533h-5.95zm35.034-9.529h-8.291v5.35h9.26v4.179h-14.375v-22.533h13.907v4.179h-8.792v4.68h8.291v4.145zm10.127-12.703c1.638-.267 4.079-.468 6.787-.468 3.341 0 5.683.5 7.286 1.772 1.339 1.07 2.073 2.641 2.073 4.713 0 2.877-2.04 4.849-3.977 5.551v.1c1.571.634 2.44 2.138 3.009 4.211.701 2.54 1.403 5.483 1.837 6.353h-5.215c-.368-.669-.901-2.474-1.571-5.25-.602-2.81-1.571-3.576-3.645-3.61h-1.538v8.858h-5.048v-22.23h.002zm5.047 9.694h2.005c2.542 0 4.046-1.27 4.046-3.242 0-2.073-1.404-3.109-3.744-3.142-1.237 0-1.939.1-2.307.167v6.217zm20.626 7.288c1.37.703 3.476 1.405 5.65 1.405 2.341 0 3.577-.971 3.577-2.44 0-1.405-1.071-2.208-3.778-3.177-3.744-1.304-6.185-3.376-6.185-6.651 0-3.846 3.211-6.787 8.526-6.787 2.54 0 4.413.534 5.75 1.136l-1.136 4.113a10.697 10.697 0 0 0-4.713-1.071c-2.206 0-3.279 1.003-3.279 2.174 0 1.436 1.271 2.073 4.18 3.176 3.977 1.471 5.85 3.544 5.85 6.719 0 3.778-2.909 7.02-9.092 7.02-2.576 0-5.116-.702-6.387-1.404l1.037-4.213zm23.567-17.283h5.116v22.533h-5.116v-22.533zm19.556 4.279h-6.051v-4.279h17.317v4.279h-6.151v18.254h-5.115v-18.254zm24.763 18.254v-9.228l-7.12-13.305h5.818l2.306 5.416c.702 1.638 1.17 2.841 1.739 4.312h.067c.501-1.404 1.036-2.708 1.704-4.312l2.275-5.416h5.716l-7.422 13.139v9.394h-5.083zm32.927-22.533h5.116v18.254h8.959v4.279h-14.075v-22.533zm22.698 0h5.118v22.533h-5.118v-22.533zm15.142.3c1.337-.268 4.045-.468 6.585-.468 3.111 0 5.018.301 6.654 1.271 1.571.836 2.708 2.374 2.708 4.413 0 2.006-1.17 3.878-3.711 4.814v.067c2.574.702 4.48 2.64 4.48 5.549 0 2.04-.936 3.643-2.34 4.781-1.64 1.305-4.381 2.04-8.859 2.04-2.508 0-4.38-.168-5.517-.335v-22.132zm5.048 8.624h1.671c2.676 0 4.112-1.101 4.112-2.773 0-1.706-1.304-2.609-3.61-2.609-1.104 0-1.74.069-2.175.135v5.247h.002zm0 9.998c.501.066 1.104.066 1.973.066 2.306 0 4.346-.901 4.346-3.243 0-2.272-2.04-3.174-4.58-3.174h-1.739v6.351zm20.759-18.621c1.638-.267 4.08-.468 6.787-.468 3.342 0 5.683.5 7.288 1.772 1.337 1.07 2.071 2.641 2.071 4.713 0 2.877-2.039 4.849-3.977 5.551v.1c1.571.634 2.441 2.138 3.009 4.211.702 2.54 1.404 5.483 1.837 6.353h-5.215c-.368-.669-.901-2.474-1.571-5.25-.602-2.81-1.571-3.576-3.645-3.61h-1.538v8.858h-5.048v-22.23h.002zm5.048 9.694h2.005c2.541 0 4.045-1.27 4.045-3.242 0-2.073-1.404-3.109-3.744-3.142-1.237 0-1.939.1-2.306.167v6.217zm25.685 6.754l-1.604 5.784h-5.282l6.886-22.534h6.687l6.987 22.534h-5.482l-1.74-5.784h-6.452zm5.717-3.812l-1.404-4.78c-.402-1.337-.803-3.009-1.137-4.347h-.067c-.334 1.338-.67 3.043-1.036 4.347l-1.337 4.78h4.981zm16.646-12.636c1.638-.267 4.079-.468 6.787-.468 3.34 0 5.683.5 7.287 1.772 1.338 1.07 2.072 2.641 2.072 4.713 0 2.877-2.04 4.849-3.977 5.551v.1c1.571.634 2.44 2.138 3.007 4.211.704 2.54 1.406 5.483 1.839 6.353h-5.215c-.368-.669-.901-2.474-1.571-5.25-.602-2.81-1.571-3.576-3.645-3.61h-1.538v8.858h-5.048v-22.23h.002zm5.047 9.694h2.006c2.541 0 4.045-1.27 4.045-3.242 0-2.073-1.404-3.109-3.744-3.142-1.237 0-1.939.1-2.307.167v6.217zm25.038 12.538v-9.228l-7.12-13.305h5.818l2.307 5.416c.702 1.638 1.17 2.841 1.738 4.312h.067c.501-1.404 1.036-2.708 1.705-4.312l2.274-5.416h5.716l-7.422 13.139v9.394h-5.083z" fill="#B81237"/>

<!-- VE wordmark -->
<path d="M501.164 92.906v4.169h-35.433V32.24h35.433v4.169h-30.91v24.523h29.18v4.169h-29.18v27.805h30.91zm10.082 4.169l17.473-24.79-16.807-23.415h5.055l14.369 20.311 14.235-20.311h4.834l-16.542 23.415 17.739 24.79h-5.1l-15.166-21.508-15.256 21.508h-4.834zm90.971 0h-4.346V65.81q0-7.272-3.06-10.576-3.06-3.304-9.49-3.304-8.647 0-12.661 4.368-4.013 4.368-4.013 14.169v26.608h-4.391V28.071h4.391v21.952l-.222 6.164h.311q2.705-4.346 6.829-6.297 4.124-1.951 10.244-1.951 16.408 0 16.408 17.605v31.531zm22.145-48.205v48.205h-4.39V48.87h4.39zm-5.011-13.393q0-4.257 2.794-4.257 1.374 0 2.15 1.109.777 1.108.777 3.148 0 1.996-.777 3.149-.776 1.153-2.15 1.153-2.794 0-2.794-4.302zm43.653 12.462q10.111 0 15.233 6.363 5.122 6.364 5.122 18.604 0 12.018-5.388 18.537-5.388 6.519-15.145 6.519-5.144 0-9.268-2.129-4.124-2.129-6.519-6.031h-.399l-1.242 7.273h-2.749V28.071h4.39v17.34q0 3.902-.177 7.184l-.134 3.77h.311q2.749-4.346 6.63-6.386 3.88-2.04 9.335-2.04zm-.089 3.991q-8.515 0-12.195 4.878-3.681 4.878-3.681 16.098v.754q0 10.909 3.836 15.654 3.836 4.745 11.951 4.745 7.894 0 11.885-5.521 3.991-5.521 3.991-15.721 0-20.887-15.787-20.887zm40.327-3.06v48.205h-4.39V48.87h4.39zm-5.011-13.393q0-4.257 2.794-4.257 1.374 0 2.15 1.109.776 1.108.776 3.148 0 1.996-.776 3.149t-2.15 1.153q-2.794 0-2.794-4.302zm36.025 58.582q4.169 0 7.273-.709v3.547q-3.193 1.065-7.362 1.065-6.386 0-9.423-3.415-3.038-3.415-3.038-10.732V52.684h-7.14v-2.572l7.14-1.996 2.217-10.909h2.262V48.87h14.146v3.814h-14.146v30.51q0 5.544 1.951 8.204 1.951 2.661 6.12 2.661zm49.728-9.534q0 6.474-4.922 9.956-4.923 3.481-13.969 3.481-9.668 0-15.344-2.971v-4.746q7.273 3.637 15.344 3.637 7.139 0 10.842-2.373 3.703-2.372 3.703-6.319 0-3.636-2.949-6.12-2.949-2.483-9.689-4.878-7.229-2.616-10.156-4.501-2.927-1.885-4.412-4.257-1.486-2.373-1.486-5.788 0-5.41 4.546-8.559 4.545-3.148 12.705-3.148 7.805 0 14.812 2.927l-1.641 3.991q-7.096-2.927-13.171-2.927-5.898 0-9.357 1.951-3.459 1.951-3.459 5.41 0 3.77 2.683 6.032 2.683 2.261 10.488 5.055 6.519 2.351 9.49 4.235 2.971 1.885 4.457 4.28 1.485 2.394 1.485 5.632zm-599.448-3.504l17.827-48.781h4.923l-24.258 64.835h-3.991L154.868 32.24h4.834l16.319 44.125q3.725 9.978 5.011 14.989.887-3.326 3.504-10.333zm37.355-32.151v48.205h-4.39V48.87h4.39zm-5.011-13.393q0-4.257 2.794-4.257 1.375 0 2.151 1.109.776 1.108.776 3.148 0 1.996-.776 3.149t-2.151 1.153q-2.794 0-2.794-4.302zm42.278 12.462q3.06 0 6.564.621l-.843 4.213q-3.016-.754-6.253-.754-6.164 0-10.111 5.233-3.947 5.232-3.947 13.215v26.608h-4.39V48.87h3.725l.444 8.692h.31q2.971-5.322 6.342-7.472 3.37-2.151 8.159-2.151zm31.236 46.12q4.169 0 7.273-.709v3.547q-3.193 1.065-7.362 1.065-6.385 0-9.423-3.415-3.038-3.415-3.038-10.732V52.684h-7.14v-2.572l7.14-1.996 2.217-10.909h2.262V48.87h14.147v3.814h-14.147v30.51q0 5.544 1.951 8.204 1.952 2.661 6.12 2.661zm19.307-45.189h4.346v31.22q0 7.273 3.06 10.577 3.06 3.304 9.49 3.304 8.603 0 12.661-4.346t4.058-14.147V48.87h4.345v48.205h-3.725l-.798-6.652h-.266q-4.701 7.539-16.719 7.539-16.452 0-16.452-17.606V48.87zm88.753 48.205h-3.237l-1.109-7.628h-.355q-3.636 4.657-7.472 6.586-3.836 1.929-9.069 1.929-7.095 0-11.042-3.637-3.947-3.636-3.947-10.066 0-7.051 5.876-10.954 5.876-3.902 17.007-4.124l9.18-.266v-3.193q0-6.874-2.794-10.377-2.794-3.504-9.003-3.504-6.696 0-13.88 3.725l-1.641-3.813q7.938-3.726 15.699-3.726 7.938 0 11.862 4.125 3.925 4.124 3.925 12.86v32.063zm-20.976-3.104q7.717 0 12.173-4.413 4.457-4.412 4.457-12.262v-4.745l-8.426.355q-10.155.488-14.479 3.171t-4.324 8.359q0 4.523 2.772 7.029 2.772 2.506 7.827 2.506zm43.121-65.9v69.004h-4.39V28.071h4.39z" fill="#3B3B3B" />

</svg>